HIERARCHY
ROOT Hips
{
	OFFSET 0.000000 0.000000 0.000000 
	CHANNELS 6 Xposition Yposition Zposition Zrotation Yrotation Xrotation
	JOINT LeftUpLeg
	{
		OFFSET 1.363060 -1.794630 0.839290 
		CHANNELS 3 Zrotation Yrotation Xrotation
		JOINT LeftLeg
		{
			OFFSET 2.448110 -6.726130 0.000000 
			CHANNELS 3 Zrotation Yrotation Xrotation
			JOINT LeftFoot
			{
				OFFSET 2.562200 -7.039590 0.000000 
				CHANNELS 3 Zrotation Yrotation Xrotation
				JOINT LeftToeBase
				{
					OFFSET 0.157640 -0.433110 2.322550 
					CHANNELS 3 Zrotation Yrotation Xrotation
					End Site
					{
						OFFSET 0.000000 0.000000 0.000000 
					}
				}
			}
		}
	}
	JOINT RightUpLeg
	{
		OFFSET -1.305520 -1.794630 0.839290 
		CHANNELS 3 Zrotation Yrotation Xrotation
		JOINT RightLeg
		{
			OFFSET -2.542530 -6.985550 0.000000 
			CHANNELS 3 Zrotation Yrotation Xrotation
			JOINT RightFoot
			{
				OFFSET -2.568260 -7.056230 0.000000 
				CHANNELS 3 Zrotation Yrotation Xrotation
				JOINT RightToeBase
				{
					OFFSET -0.164730 -0.452590 2.363150 
					CHANNELS 3 Zrotation Yrotation Xrotation
					End Site
					{
						OFFSET 0.000000 0.000000 0.000000 
					}
				}
			}
		}
	}
	JOINT Spine
	{
		OFFSET 0.028270 2.035590 -0.193380 
		CHANNELS 3 Zrotation Yrotation Xrotation
		JOINT Spine1
		{
			OFFSET 0.056720 2.048850 -0.042750 
			CHANNELS 3 Zrotation Yrotation Xrotation
			JOINT Neck1
			{
				OFFSET -0.054170 1.746240 0.172020 
				CHANNELS 3 Zrotation Yrotation Xrotation
				JOINT Head
				{
					OFFSET 0.104070 1.761360 -0.123970 
					CHANNELS 3 Zrotation Yrotation Xrotation
					End Site
					{
						OFFSET 0.000000 0.000000 0.000000 
					}
				}
			}
			JOINT LeftArm
			{
				OFFSET 3.362410 1.200890 -0.311210 
				CHANNELS 3 Zrotation Yrotation Xrotation
				JOINT LeftForeArm
				{
					OFFSET 4.983000 -0.000000 -0.000000 
					CHANNELS 3 Zrotation Yrotation Xrotation
					JOINT LeftHand
					{
						OFFSET 3.483560 -0.000000 -0.000000 
						CHANNELS 3 Zrotation Yrotation Xrotation
						JOINT LeftHandIndex1
						{
							OFFSET 0.715260 -0.000000 -0.000000 
							CHANNELS 3 Zrotation Yrotation Xrotation
							End Site
							{
								OFFSET 0.000000 0.000000 0.000000 
							}
						}
					}
				}
			}
			JOINT RightArm
			{
				OFFSET -3.136600 1.374050 -0.404650 
				CHANNELS 3 Zrotation Yrotation Xrotation
				JOINT RightForeArm
				{
					OFFSET -5.241900 -0.000000 -0.000000 
					CHANNELS 3 Zrotation Yrotation Xrotation
					JOINT RightHand
					{
						OFFSET -3.444170 -0.000000 -0.000000 
						CHANNELS 3 Zrotation Yrotation Xrotation
						JOINT RightHandIndex1
						{
							OFFSET -0.622530 -0.000000 -0.000000 
							CHANNELS 3 Zrotation Yrotation Xrotation
							End Site
							{
								OFFSET 0.000000 0.000000 0.000000 
							}
						}
					}
				}
			}
		}
	}
}
MOTION
Frames: 10
Frame Time: 0.041667
0.728517 18.181517 6.086017 0.207047 -5.141288 6.160160 -14.968674 -0.934367 -8.908151 13.912781 16.576126 73.981536 2.833549 -8.720927 36.882905 0.132200 -2.343300 -6.455400 18.699200 13.105183 -31.049295 -1.739921 -10.639037 34.424633 -2.151838 1.308685 19.631751 -0.578400 -4.870200 13.538700 2.468428 -1.788360 -1.377438 2.802952 -1.442536 -9.647338 5.733246 -4.546494 9.363285 0.320800 -1.937600 8.028500 -85.578805 12.655676 41.503868 123.766062 -56.188836 -90.915962 -0.095083 -0.666361 -43.435086 -7.125000 0.000000 0.000000 73.137433 -28.277452 45.109878 -116.292070 60.274594 -84.263932 0.772940 -0.848319 -12.435100 7.125000 0.000000 0.000000 
0.724981 18.083875 6.588887 0.257772 -4.848865 6.151948 -14.498358 -1.165115 -11.511147 15.536424 17.080755 78.420985 2.463023 -6.722916 34.710815 0.103400 -2.073300 -5.708200 19.381122 13.402474 -30.564555 -2.525461 -11.265619 36.776481 -1.559697 0.218675 16.168413 -0.590900 -4.921500 13.684800 2.453426 -1.617126 -1.402673 2.752013 -1.327025 -9.693738 5.507888 -4.720100 9.343287 0.178800 -2.033800 8.043200 -85.734704 13.410192 41.992869 123.587055 -56.220903 -90.685620 -0.008291 -0.801723 -44.718203 -7.125000 0.000000 0.000000 73.609274 -26.663210 45.071789 -115.370164 60.411733 -83.569994 0.816480 -0.837300 -12.835995 7.125000 0.000000 0.000000 
0.720718 17.958782 7.067216 -0.259302 -4.812413 6.143808 -13.329966 -1.078168 -14.097990 17.047248 17.554026 82.569498 2.957033 -6.679797 39.603364 1.756000 8.338300 23.746300 20.722820 14.078481 -29.649251 -3.316824 -11.743646 38.867451 -0.482574 -2.122824 12.400865 -0.461900 -4.359400 12.090200 2.517160 -1.267158 -1.374344 2.568683 -1.145454 -9.723086 5.308030 -4.911447 9.464914 0.029900 -2.122300 8.166200 -85.766570 13.913230 42.479101 122.488124 -56.594044 -89.834060 -0.014703 -0.823167 -45.094875 -7.125000 0.000000 0.000000 74.092304 -24.748652 45.145046 -114.532301 60.503097 -82.940694 0.862681 -0.828415 -13.091191 7.125000 0.000000 0.000000 
0.713335 17.846894 7.550537 -1.709339 -5.286645 6.192438 -11.020992 -0.401210 -16.884397 18.323483 17.999254 86.563061 2.333025 -6.383310 33.379538 0.250900 3.223000 8.900300 23.015192 15.395797 -27.953732 -3.941508 -11.960298 40.551908 0.294778 -3.649152 8.729534 -0.329900 -3.691500 10.210400 2.752332 -0.633480 -1.318545 2.275332 -0.846549 -9.729396 5.300221 -4.940494 9.275893 0.016500 -2.142600 8.088800 -85.857947 14.528342 42.689769 121.027273 -57.069730 -88.722100 -0.029256 -0.830793 -44.720597 -7.125000 0.000000 0.000000 74.209729 -22.814518 45.610864 -113.826935 60.569543 -82.402990 0.900938 -0.819767 -13.262874 7.125000 0.000000 0.000000 
0.704184 17.752372 8.020340 -3.106371 -5.789277 6.432424 -8.722783 0.224235 -19.778199 19.529566 18.437920 90.151063 2.169423 -6.921430 30.620447 0.003700 -0.395000 -1.085300 25.109992 16.950637 -26.113050 -4.414393 -12.046676 41.787447 0.937959 -4.968030 5.612931 -0.209000 -2.943300 8.121000 2.997532 -0.042496 -1.349764 2.104665 -0.558752 -9.903254 5.371130 -4.909078 9.024333 0.052500 -2.133900 7.942500 -86.085147 15.928051 42.390077 120.617714 -57.217812 -88.404287 -0.026195 -0.828025 -44.278849 -7.125000 0.000000 0.000000 74.188572 -20.914446 46.256220 -113.360267 60.583999 -82.042462 0.904049 -0.815029 -13.299356 7.125000 0.000000 0.000000 
0.684115 17.671784 8.468826 -3.903299 -5.982356 6.609712 -6.965519 0.519173 -22.713434 20.629279 18.819559 93.345644 2.113732 -7.578963 29.172823 0.007200 -0.547300 -1.504000 26.489659 18.292524 -24.364488 -4.758516 -12.077360 42.626253 1.623914 -6.491599 3.158434 -0.121200 -2.244400 6.181500 3.175675 0.320519 -1.456380 2.223901 -0.363133 -10.386042 5.606300 -4.853170 8.850367 0.166000 -2.096300 7.867000 -86.289801 17.663946 42.013633 120.822180 -57.176156 -88.538960 -0.009843 -0.836235 -43.931649 -7.125000 0.000000 0.000000 74.125050 -18.988381 47.070098 -113.077317 60.553880 -81.818825 0.892472 -0.798918 -13.154538 7.125000 0.000000 0.000000 
0.666438 17.601802 8.926359 -3.951293 -5.755831 6.509554 -6.093988 0.318731 -25.364761 21.592444 19.077001 96.048949 1.970168 -7.465209 27.665055 0.010400 0.659000 1.811000 27.008898 18.832805 -22.752396 -4.988674 -12.112678 43.255426 2.104182 -7.597685 1.159273 -0.079300 -1.816800 4.999700 3.194608 0.433896 -1.481713 2.342048 -0.270043 -10.676915 5.868740 -4.896273 8.274616 0.266100 -2.119600 7.588000 -86.147535 19.065653 41.962047 120.879431 -57.182521 -88.560620 -0.000083 -0.842503 -43.724113 -7.125000 0.000000 0.000000 74.225828 -16.996939 47.774695 -113.096433 60.451209 -81.830892 0.876931 -0.803304 -13.063528 7.125000 0.000000 0.000000 
0.653544 17.564472 9.403336 -3.541961 -5.447529 6.356353 -5.954721 -0.144992 -27.898363 22.294027 19.263561 98.023386 1.835898 -7.247291 26.561141 0.024300 1.005700 2.764500 26.915972 18.892551 -21.225728 -5.101399 -12.113684 43.597024 2.453198 -8.433394 -0.550708 -0.053200 -1.488700 4.094700 3.083990 0.485975 -1.335621 2.330478 -0.203497 -10.311057 6.019770 -5.098809 7.968682 0.277400 -2.205400 7.515100 -85.761410 20.053600 42.194753 121.130606 -57.138871 -88.738059 -0.000086 -0.823908 -43.314851 -7.125000 0.000000 0.000000 74.583717 -14.700770 48.216580 -113.550753 60.242263 -82.187869 0.853341 -0.829240 -12.834837 7.125000 0.000000 0.000000 
0.637114 17.554177 9.887593 -3.077695 -5.133304 6.437184 -6.072909 -0.786388 -30.424882 22.763827 19.447377 99.317006 1.701786 -7.107066 25.252814 0.002700 0.337300 0.926700 26.687516 18.637952 -19.639651 -5.085313 -12.039041 43.583151 2.698970 -9.061556 -2.254990 -0.044200 -1.357000 3.731600 2.991854 0.527908 -1.150483 2.428441 -0.139582 -9.649715 6.140746 -5.384676 8.007450 0.270900 -2.315000 7.669700 -85.419758 20.810591 42.506724 121.647466 -57.011490 -89.097478 -0.007872 -0.826660 -42.736368 -7.125000 0.000000 0.000000 74.900691 -12.508880 48.552210 -115.048215 59.797672 -83.359387 0.819253 -0.852502 -12.572290 7.125000 0.000000 0.000000 
0.625260 17.571439 10.381416 -2.627415 -4.306780 6.735744 -6.306745 -2.104065 -32.844772 23.033139 19.612959 99.960555 1.531850 -6.669764 23.738492 0.002400 -0.314800 -0.865000 26.317946 17.619691 -18.444631 -4.910974 -11.887798 43.099055 2.847048 -9.465873 -3.402326 -0.026600 -1.052300 2.892800 2.903658 0.383616 -1.125826 2.462807 -0.167034 -9.289176 6.238121 -5.563224 7.825421 0.269800 -2.391700 7.638400 -85.062700 21.820689 42.836698 122.440353 -56.793948 -89.658271 -0.015041 -0.834610 -42.389874 -7.125000 0.000000 0.000000 75.166444 -10.896912 48.863393 -117.175863 59.179874 -85.017575 0.801299 -0.869199 -12.500490 7.125000 0.000000 0.000000 
